<svg xmlns="http://www.w3.org/2000/svg" width="96" height="96" viewBox="0 0 96 96" fill="none" role="img" aria-label="Radhira POS">
  <defs>
    <linearGradient id="g" x1="16" y1="10" x2="84" y2="90" gradientUnits="userSpaceOnUse">
      <stop offset="0" stop-color="#f50087"/>
      <stop offset="1" stop-color="#ff80ab"/>
    </linearGradient>
    <filter id="shadow" x="-20%" y="-20%" width="140%" height="140%" color-interpolation-filters="sRGB">
      <feDropShadow dx="0" dy="12" stdDeviation="10" flood-color="#000" flood-opacity="0.45"/>
    </filter>
  </defs>
  <g filter="url(#shadow)">
    <path d="M48 8c22.091 0 40 17.909 40 40S70.091 88 48 88 8 70.091 8 48 25.909 8 48 8Z" fill="url(#g)"/>
    <path d="M22 48c0-14.36 11.64-26 26-26 9.6 0 18.0 5.2 22.4 12.9-5.7-4.2-12.1-5.9-19.6-5.1-12.4 1.3-21.8 10.7-23.1 23.1-.8 7.5.9 13.9 5.1 19.6C27.2 66 22 57.6 22 48Z" fill="#fff" fill-opacity="0.14"/>
    <path d="M33.5 62V34.6h13.1c3.3 0 5.9.9 7.8 2.6 2 1.7 3 4.1 3 7.1 0 3.1-1 5.5-3 7.2-1.9 1.7-4.5 2.6-7.8 2.6h-6.9V62h-6.2Zm6.2-14.8h6.5c1.7 0 3-.4 3.8-1.1.9-.8 1.3-1.9 1.3-3.3 0-1.4-.4-2.5-1.3-3.2-.9-.8-2.1-1.1-3.8-1.1h-6.5v8.7Z" fill="#0a0612" fill-opacity="0.92"/>
  </g>
</svg>

